<!-- icon666.com - MILLIONS OF FREE VECTOR ICONS --><svg id="Layer_1" enable-background="new 0 0 128 128" viewBox="0 0 128 128" xmlns="http://www.w3.org/2000/svg" xmlns:xlink="http://www.w3.org/1999/xlink"><linearGradient id="SVGID_1_" gradientTransform="matrix(1 0 0 -1 0 127.89)" gradientUnits="userSpaceOnUse" x1="90.648" x2="21.821" y1="46.481" y2="115.309"><stop offset="0" stop-color="#3bc7fd"></stop><stop offset="1" stop-color="#bbdb07"></stop></linearGradient><path d="m35.3 88.6c-1-.1-1.7-.9-1.6-1.9l.4-4.5c.1-1 .9-1.7 1.9-1.6s1.7.9 1.6 1.9v.1l-.3 4.5c-.1.9-.8 1.6-1.7 1.6-.2-.1-.2-.1-.3-.1zm-11.4-69.7v7.4h4v-6.9c0-2.6 2.1-4.7 4.8-4.7h25.7v-4h-7.9c-1 0-1.8-.8-1.8-1.8s.8-1.8 1.8-1.8h7.9v-.8c0-1 .8-1.8 1.8-1.8h13.5c20.7 3.5 13.6 2.3 15.1 2.6.8.1 1.5.9 1.5 1.7v7.5c0 .9-.6 1.6-1.5 1.7-11.5 2-14.9 2.6-15.1 2.6h-13.6c-1 0-1.8-.8-1.8-1.8v-.8h-25.6c-.7 0-1.2.6-1.3 1.3v6.9h2.7c.8 0 1.5.6 1.7 1.4l2.7 11.7h3c1 0 1.7.8 1.8 1.8v25.1c0 1-.8 1.8-1.8 1.8h-2.8l-.4 4.9c-.1.9-.8 1.6-1.7 1.6h-.1c-1-.1-1.7-.9-1.6-1.9l.4-4.6h-18.7l2.7 34.6h13.2l.5-6.7c.1-1 .9-1.7 1.9-1.6s1.7.9 1.6 1.9v.1l-.7 8.3c-.1.9-.8 1.6-1.7 1.6h-6.4c.1 7.7 6.3 13.8 14 13.7 7.6-.1 13.7-6.2 13.7-13.8v-36.8c0-9.6 7.8-17.4 17.4-17.4h15.6c1 0 1.8.8 1.8 1.8s-.8 1.8-1.8 1.8h-15.6c-7.7 0-13.9 6.2-13.9 13.9v36.8c-.1 9.6-7.9 17.3-17.5 17.3-9.5-.1-17.2-7.7-17.3-17.2h-6.5c-.9 0-1.7-.7-1.7-1.6l-2.8-36.7h-2.8c-1 0-1.7-.8-1.8-1.7v-25.2c0-1 .8-1.8 1.8-1.8h3l2.7-11.6c.2-.8.9-1.4 1.7-1.4h2.7v-7.4c0-6.5 5.3-11.7 11.8-11.8h8.9c1 0 1.8.8 1.8 1.8s-.8 1.8-1.8 1.8h-8.9c-4.6-.1-8.3 3.6-8.3 8.2zm51.4-2 11.3-2v-4.6l-11.3-2zm-13.5.3h10v-9.1h-10zm-47.1 25.7h-2.7v21.6h27.7v-21.6zm4.4-13.1-2.2 9.6h18l-2.2-9.6zm85-9.1c-14 0-13.8-16.2 0-16.2 5.8.1 11.2 2.6 14.9 7 .5.6.5 1.5 0 2.2-3.7 4.4-9.1 7-14.9 7zm0-3.5c4.2-.1 8.1-1.7 11.1-4.6-3-2.9-7-4.5-11.1-4.6-6.6 0-6.9 4.2-6.9 4.6 0 .6.5 4.6 6.9 4.6z" fill="url(#SVGID_1_)"></path></svg>